<?xml version="1.0" standalone="no"?>
<!DOCTYPE svg PUBLIC "-//W3C//DTD SVG 20010904//EN"
 "http://www.w3.org/TR/2001/REC-SVG-20010904/DTD/svg10.dtd">
<svg version="1.0" xmlns="http://www.w3.org/2000/svg"
 width="512.000000pt" height="512.000000pt" viewBox="0 0 512.000000 512.000000"
 preserveAspectRatio="xMidYMid meet">
<metadata>
Created by potrace 1.14, written by Peter Selinger 2001-2017
</metadata>
<g transform="translate(0.000000,512.000000) scale(0.100000,-0.100000)"
fill="#000000" stroke="none">
<path d="M1264 4695 c-375 -68 -678 -325 -798 -676 -57 -169 -56 -124 -53
-1489 l2 -1255 27 -97 c109 -396 442 -698 833 -756 28 -4 615 -7 1305 -7 1198
0 1258 1 1330 19 89 22 197 64 266 101 276 152 477 438 522 740 4 28 7 615 7
1305 l0 1255 -23 89 c-53 211 -171 404 -328 536 -70 59 -77 64 -139 102 -89
53 -169 87 -275 117 l-95 26 -1255 2 c-985 1 -1270 -1 -1326 -12z m2101 -608
c120 -32 224 -112 273 -209 50 -100 49 -70 47 -1338 -1 -1112 -2 -1188 -19
-1234 -52 -144 -171 -248 -313 -274 -28 -5 -395 -8 -819 -7 -628 2 -776 5
-809 17 -146 51 -248 160 -280 303 -9 36 -11 373 -10 1235 1 1112 2 1188 19
1234 52 142 165 242 306 271 57 11 1564 14 1605 2z"/>
<path d="M1805 3781 c-11 -5 -29 -19 -40 -31 -19 -20 -20 -38 -23 -256 -3
-252 1 -278 51 -306 28 -16 1462 -21 1514 -6 18 5 42 22 53 37 18 27 19 43 17
270 l-2 241 -28 27 -27 28 -748 2 c-411 1 -756 -2 -767 -6z"/>
<path d="M1863 2952 c-129 -66 -161 -218 -67 -322 88 -97 238 -89 314 16 57
80 49 192 -18 260 -59 59 -162 80 -229 46z"/>
<path d="M2504 2961 c-117 -29 -182 -178 -126 -286 76 -148 280 -151 361 -6
57 104 6 243 -104 286 -31 12 -96 15 -131 6z"/>
<path d="M3095 2951 c-111 -50 -154 -172 -100 -285 27 -57 114 -106 188 -106
42 0 119 38 146 72 66 83 65 188 -2 265 -61 69 -153 91 -232 54z"/>
<path d="M1901 2349 c-50 -11 -112 -59 -136 -106 -30 -61 -31 -114 -2 -177 67
-145 259 -160 352 -28 26 38 30 52 30 112 0 60 -4 74 -30 112 -50 70 -134 104
-214 87z"/>
<path d="M2507 2345 c-148 -38 -201 -221 -96 -333 124 -133 348 -47 351 135 3
137 -120 233 -255 198z"/>
<path d="M3125 2347 c-180 -43 -208 -294 -42 -379 113 -57 253 7 287 132 40
148 -94 283 -245 247z"/>
<path d="M1865 1720 c-74 -35 -110 -83 -121 -159 -13 -91 55 -196 141 -220 54
-15 676 -15 729 0 53 15 93 46 121 94 32 54 36 103 15 164 -21 63 -52 98 -108
122 -40 17 -73 19 -390 19 -322 0 -350 -2 -387 -20z"/>
<path d="M3102 1726 c-132 -47 -174 -222 -78 -324 43 -46 82 -65 141 -68 155
-7 261 158 190 296 -46 89 -157 131 -253 96z"/>
</g>
</svg>
